<mxfile host="Electron" modified="2023-09-25T10:41:30.981Z" agent="Mozilla/5.0 (Windows NT 10.0; Win64; x64) AppleWebKit/537.36 (KHTML, like Gecko) draw.io/21.6.8 Chrome/114.0.5735.289 Electron/25.5.0 Safari/537.36" etag="e16js7gwrJSHJqflFqDp" version="21.6.8" type="device">
  <diagram name="Страница — 1" id="YlvBT6MEAiinMr560eCs">
    <mxGraphModel dx="4971" dy="2424" grid="1" gridSize="10" guides="1" tooltips="1" connect="1" arrows="1" fold="1" page="1" pageScale="1" pageWidth="827" pageHeight="1169" math="0" shadow="0">
      <root>
        <mxCell id="0" />
        <mxCell id="1" parent="0" />
        <mxCell id="uLyO-aLDXPjwOeiDQn8A-2" value="" style="strokeWidth=1;shadow=0;dashed=0;align=center;html=1;shape=mxgraph.mockup.containers.browserWindow;rSize=0;strokeColor=#666666;strokeColor2=#008cff;strokeColor3=#c4c4c4;mainText=,;recursiveResize=0;" vertex="1" parent="1">
          <mxGeometry x="170" y="125" width="400" height="460" as="geometry" />
        </mxCell>
        <mxCell id="uLyO-aLDXPjwOeiDQn8A-3" value="Page 1" style="strokeWidth=1;shadow=0;dashed=0;align=center;html=1;shape=mxgraph.mockup.containers.anchor;fontSize=17;fontColor=#666666;align=left;whiteSpace=wrap;" vertex="1" parent="uLyO-aLDXPjwOeiDQn8A-2">
          <mxGeometry x="60" y="12" width="110" height="26" as="geometry" />
        </mxCell>
        <mxCell id="uLyO-aLDXPjwOeiDQn8A-4" value="https://InfoSportforActiveLife.com" style="strokeWidth=1;shadow=0;dashed=0;align=center;html=1;shape=mxgraph.mockup.containers.anchor;rSize=0;fontSize=17;fontColor=#666666;align=left;" vertex="1" parent="uLyO-aLDXPjwOeiDQn8A-2">
          <mxGeometry x="130" y="60" width="200" height="26" as="geometry" />
        </mxCell>
        <mxCell id="uLyO-aLDXPjwOeiDQn8A-5" value="&lt;font style=&quot;font-size: 20px;&quot;&gt;Реєстрація&lt;/font&gt;" style="text;html=1;align=center;verticalAlign=middle;resizable=0;points=[];autosize=1;strokeColor=none;fillColor=none;" vertex="1" parent="uLyO-aLDXPjwOeiDQn8A-2">
          <mxGeometry x="115" y="135" width="130" height="40" as="geometry" />
        </mxCell>
        <mxCell id="uLyO-aLDXPjwOeiDQn8A-10" value="user.emai@gmail.com" style="strokeWidth=1;shadow=0;dashed=0;align=center;html=1;shape=mxgraph.mockup.text.textBox;fontColor=#666666;align=left;fontSize=17;spacingLeft=4;spacingTop=-3;whiteSpace=wrap;strokeColor=#666666;mainText=" vertex="1" parent="uLyO-aLDXPjwOeiDQn8A-2">
          <mxGeometry x="87.5" y="190" width="185" height="30" as="geometry" />
        </mxCell>
        <mxCell id="uLyO-aLDXPjwOeiDQn8A-11" value="****************" style="strokeWidth=1;shadow=0;dashed=0;align=center;html=1;shape=mxgraph.mockup.text.textBox;fontColor=#666666;align=left;fontSize=17;spacingLeft=4;spacingTop=-3;whiteSpace=wrap;strokeColor=#666666;mainText=" vertex="1" parent="uLyO-aLDXPjwOeiDQn8A-2">
          <mxGeometry x="87.5" y="240" width="184" height="30" as="geometry" />
        </mxCell>
        <mxCell id="uLyO-aLDXPjwOeiDQn8A-21" value="Зареєструватись" style="strokeWidth=1;shadow=0;dashed=0;align=center;html=1;shape=mxgraph.mockup.buttons.button;strokeColor=#666666;fontColor=#ffffff;mainText=;buttonStyle=round;fontSize=17;fontStyle=1;fillColor=#008cff;whiteSpace=wrap;" vertex="1" parent="uLyO-aLDXPjwOeiDQn8A-2">
          <mxGeometry x="104.5" y="320" width="150" height="50" as="geometry" />
        </mxCell>
        <mxCell id="uLyO-aLDXPjwOeiDQn8A-20" value="У мене вже є аккаунт" style="strokeWidth=1;shadow=0;dashed=0;align=center;html=1;shape=mxgraph.mockup.buttons.button;strokeColor=#666666;fontColor=#ffffff;mainText=;buttonStyle=round;fontSize=17;fontStyle=1;fillColor=#008cff;whiteSpace=wrap;" vertex="1" parent="uLyO-aLDXPjwOeiDQn8A-2">
          <mxGeometry x="122.5" y="390" width="115" height="40" as="geometry" />
        </mxCell>
        <mxCell id="uLyO-aLDXPjwOeiDQn8A-6" value="" style="strokeWidth=1;shadow=0;dashed=0;align=center;html=1;shape=mxgraph.mockup.containers.browserWindow;rSize=0;strokeColor=#666666;strokeColor2=#008cff;strokeColor3=#c4c4c4;mainText=,;recursiveResize=0;" vertex="1" parent="1">
          <mxGeometry x="680" y="125" width="400" height="460" as="geometry" />
        </mxCell>
        <mxCell id="uLyO-aLDXPjwOeiDQn8A-7" value="Page 1" style="strokeWidth=1;shadow=0;dashed=0;align=center;html=1;shape=mxgraph.mockup.containers.anchor;fontSize=17;fontColor=#666666;align=left;whiteSpace=wrap;" vertex="1" parent="uLyO-aLDXPjwOeiDQn8A-6">
          <mxGeometry x="60" y="12" width="110" height="26" as="geometry" />
        </mxCell>
        <mxCell id="uLyO-aLDXPjwOeiDQn8A-8" value="https://InfoSportforActiveLife.com" style="strokeWidth=1;shadow=0;dashed=0;align=center;html=1;shape=mxgraph.mockup.containers.anchor;rSize=0;fontSize=17;fontColor=#666666;align=left;" vertex="1" parent="uLyO-aLDXPjwOeiDQn8A-6">
          <mxGeometry x="130" y="60" width="250" height="26" as="geometry" />
        </mxCell>
        <mxCell id="uLyO-aLDXPjwOeiDQn8A-9" value="&lt;font style=&quot;font-size: 20px;&quot;&gt;Авторизація&lt;/font&gt;" style="text;html=1;align=center;verticalAlign=middle;resizable=0;points=[];autosize=1;strokeColor=none;fillColor=none;" vertex="1" parent="uLyO-aLDXPjwOeiDQn8A-6">
          <mxGeometry x="122" y="135" width="140" height="40" as="geometry" />
        </mxCell>
        <mxCell id="uLyO-aLDXPjwOeiDQn8A-12" value="user.emai@gmail.com" style="strokeWidth=1;shadow=0;dashed=0;align=center;html=1;shape=mxgraph.mockup.text.textBox;fontColor=#666666;align=left;fontSize=17;spacingLeft=4;spacingTop=-3;whiteSpace=wrap;strokeColor=#666666;mainText=" vertex="1" parent="uLyO-aLDXPjwOeiDQn8A-6">
          <mxGeometry x="100" y="190" width="185" height="30" as="geometry" />
        </mxCell>
        <mxCell id="uLyO-aLDXPjwOeiDQn8A-19" value="****************" style="strokeWidth=1;shadow=0;dashed=0;align=center;html=1;shape=mxgraph.mockup.text.textBox;fontColor=#666666;align=left;fontSize=17;spacingLeft=4;spacingTop=-3;whiteSpace=wrap;strokeColor=#666666;mainText=" vertex="1" parent="uLyO-aLDXPjwOeiDQn8A-6">
          <mxGeometry x="100" y="240" width="184" height="30" as="geometry" />
        </mxCell>
        <mxCell id="uLyO-aLDXPjwOeiDQn8A-22" value="Авторизуватись" style="strokeWidth=1;shadow=0;dashed=0;align=center;html=1;shape=mxgraph.mockup.buttons.button;strokeColor=#666666;fontColor=#ffffff;mainText=;buttonStyle=round;fontSize=17;fontStyle=1;fillColor=#008cff;whiteSpace=wrap;" vertex="1" parent="uLyO-aLDXPjwOeiDQn8A-6">
          <mxGeometry x="117.5" y="320" width="150" height="50" as="geometry" />
        </mxCell>
        <mxCell id="uLyO-aLDXPjwOeiDQn8A-23" value="у мене не має аккаунту" style="strokeWidth=1;shadow=0;dashed=0;align=center;html=1;shape=mxgraph.mockup.buttons.button;strokeColor=#666666;fontColor=#ffffff;mainText=;buttonStyle=round;fontSize=17;fontStyle=1;fillColor=#008cff;whiteSpace=wrap;" vertex="1" parent="uLyO-aLDXPjwOeiDQn8A-6">
          <mxGeometry x="135" y="390" width="115" height="40" as="geometry" />
        </mxCell>
        <mxCell id="uLyO-aLDXPjwOeiDQn8A-24" value="" style="strokeWidth=1;shadow=0;dashed=0;align=center;html=1;shape=mxgraph.mockup.containers.browserWindow;rSize=0;strokeColor=#666666;strokeColor2=#008cff;strokeColor3=#c4c4c4;mainText=,;recursiveResize=0;" vertex="1" parent="1">
          <mxGeometry x="-650" y="770" width="400" height="460" as="geometry" />
        </mxCell>
        <mxCell id="uLyO-aLDXPjwOeiDQn8A-25" value="Page 1" style="strokeWidth=1;shadow=0;dashed=0;align=center;html=1;shape=mxgraph.mockup.containers.anchor;fontSize=17;fontColor=#666666;align=left;whiteSpace=wrap;" vertex="1" parent="uLyO-aLDXPjwOeiDQn8A-24">
          <mxGeometry x="60" y="12" width="110" height="26" as="geometry" />
        </mxCell>
        <mxCell id="uLyO-aLDXPjwOeiDQn8A-26" value="https://InfoSportforActiveLife.com" style="strokeWidth=1;shadow=0;dashed=0;align=center;html=1;shape=mxgraph.mockup.containers.anchor;rSize=0;fontSize=17;fontColor=#666666;align=left;" vertex="1" parent="uLyO-aLDXPjwOeiDQn8A-24">
          <mxGeometry x="130" y="60" width="200" height="26" as="geometry" />
        </mxCell>
        <mxCell id="uLyO-aLDXPjwOeiDQn8A-32" value="" style="verticalLabelPosition=bottom;shadow=0;dashed=0;align=center;html=1;verticalAlign=top;strokeWidth=1;shape=mxgraph.mockup.containers.userMale;strokeColor=#666666;strokeColor2=#008cff;" vertex="1" parent="uLyO-aLDXPjwOeiDQn8A-24">
          <mxGeometry y="110" width="100" height="100" as="geometry" />
        </mxCell>
        <mxCell id="uLyO-aLDXPjwOeiDQn8A-34" value="&lt;font style=&quot;font-size: 20px;&quot;&gt;Фізіотерапевт&lt;/font&gt;" style="text;html=1;align=center;verticalAlign=middle;resizable=0;points=[];autosize=1;strokeColor=none;fillColor=none;strokeWidth=3;" vertex="1" parent="uLyO-aLDXPjwOeiDQn8A-24">
          <mxGeometry x="120" y="135" width="150" height="40" as="geometry" />
        </mxCell>
        <mxCell id="uLyO-aLDXPjwOeiDQn8A-35" value="&lt;br&gt;Добрий день, потрібна консультація щодо мого фізичного стану здоров&#39;я." style="strokeWidth=1;shadow=0;dashed=0;align=center;html=1;shape=mxgraph.mockup.containers.rrect;rSize=0;strokeColor=#666666;fontColor=#666666;fontSize=17;verticalAlign=top;whiteSpace=wrap;fillColor=#ffffff;spacingTop=32;" vertex="1" parent="uLyO-aLDXPjwOeiDQn8A-24">
          <mxGeometry y="280" width="400" height="180" as="geometry" />
        </mxCell>
        <mxCell id="uLyO-aLDXPjwOeiDQn8A-36" value="Повідомлення" style="strokeWidth=1;shadow=0;dashed=0;align=center;html=1;shape=mxgraph.mockup.containers.rrect;rSize=0;fontSize=17;fontColor=#666666;strokeColor=#666666;align=left;spacingLeft=8;fillColor=#ffffff;resizeWidth=1;whiteSpace=wrap;" vertex="1" parent="uLyO-aLDXPjwOeiDQn8A-35">
          <mxGeometry width="400" height="30" relative="1" as="geometry" />
        </mxCell>
        <mxCell id="uLyO-aLDXPjwOeiDQn8A-37" value="" style="shape=ellipse;strokeColor=#008cff;resizable=0;fillColor=none;html=1;" vertex="1" parent="uLyO-aLDXPjwOeiDQn8A-36">
          <mxGeometry x="1" y="0.5" width="20" height="20" relative="1" as="geometry">
            <mxPoint x="-25" y="-10" as="offset" />
          </mxGeometry>
        </mxCell>
        <mxCell id="uLyO-aLDXPjwOeiDQn8A-38" value="OK" style="strokeWidth=1;shadow=0;dashed=0;align=center;html=1;shape=mxgraph.mockup.containers.rrect;rSize=0;fontSize=16;fontColor=#666666;strokeColor=#c4c4c4;resizable=0;whiteSpace=wrap;fillColor=#ffffff;" vertex="1" parent="uLyO-aLDXPjwOeiDQn8A-35">
          <mxGeometry x="0.5" y="1" width="120" height="25" relative="1" as="geometry">
            <mxPoint x="-60" y="-33" as="offset" />
          </mxGeometry>
        </mxCell>
        <mxCell id="uLyO-aLDXPjwOeiDQn8A-39" value="" style="verticalLabelPosition=bottom;shadow=0;dashed=0;align=center;html=1;verticalAlign=top;strokeWidth=1;shape=mxgraph.mockup.markup.line;strokeColor=#999999;" vertex="1" parent="uLyO-aLDXPjwOeiDQn8A-24">
          <mxGeometry x="80" y="200" width="320" height="20" as="geometry" />
        </mxCell>
        <mxCell id="uLyO-aLDXPjwOeiDQn8A-40" value="" style="strokeWidth=1;shadow=0;dashed=0;align=center;html=1;shape=mxgraph.mockup.containers.browserWindow;rSize=0;strokeColor=#666666;strokeColor2=#008cff;strokeColor3=#c4c4c4;mainText=,;recursiveResize=0;" vertex="1" parent="1">
          <mxGeometry x="-60" y="680" width="400" height="460" as="geometry" />
        </mxCell>
        <mxCell id="uLyO-aLDXPjwOeiDQn8A-41" value="Page 1" style="strokeWidth=1;shadow=0;dashed=0;align=center;html=1;shape=mxgraph.mockup.containers.anchor;fontSize=17;fontColor=#666666;align=left;whiteSpace=wrap;" vertex="1" parent="uLyO-aLDXPjwOeiDQn8A-40">
          <mxGeometry x="60" y="12" width="110" height="26" as="geometry" />
        </mxCell>
        <mxCell id="uLyO-aLDXPjwOeiDQn8A-42" value="https://InfoSportforActiveLife.com" style="strokeWidth=1;shadow=0;dashed=0;align=center;html=1;shape=mxgraph.mockup.containers.anchor;rSize=0;fontSize=17;fontColor=#666666;align=left;" vertex="1" parent="uLyO-aLDXPjwOeiDQn8A-40">
          <mxGeometry x="130" y="60" width="200" height="26" as="geometry" />
        </mxCell>
        <mxCell id="uLyO-aLDXPjwOeiDQn8A-50" value="&lt;font style=&quot;font-size: 20px;&quot;&gt;Меню здоров&#39;я&lt;/font&gt;" style="text;html=1;align=center;verticalAlign=middle;resizable=0;points=[];autosize=1;strokeColor=none;fillColor=none;" vertex="1" parent="uLyO-aLDXPjwOeiDQn8A-40">
          <mxGeometry x="110" y="150" width="160" height="40" as="geometry" />
        </mxCell>
        <mxCell id="uLyO-aLDXPjwOeiDQn8A-52" value="Написати фізіотерапевту" style="strokeWidth=1;shadow=0;dashed=0;align=center;html=1;shape=mxgraph.mockup.forms.pwField;strokeColor=#999999;mainText=;align=left;fontColor=#666666;fontSize=17;spacingLeft=3;" vertex="1" parent="uLyO-aLDXPjwOeiDQn8A-40">
          <mxGeometry x="62.5" y="212.5" width="275" height="35" as="geometry" />
        </mxCell>
        <mxCell id="uLyO-aLDXPjwOeiDQn8A-51" value="Перевірити наявність повідомлень" style="strokeWidth=1;shadow=0;dashed=0;align=center;html=1;shape=mxgraph.mockup.forms.pwField;strokeColor=#999999;mainText=;align=left;fontColor=#666666;fontSize=17;spacingLeft=3;" vertex="1" parent="uLyO-aLDXPjwOeiDQn8A-40">
          <mxGeometry x="60" y="260" width="275" height="30" as="geometry" />
        </mxCell>
        <mxCell id="uLyO-aLDXPjwOeiDQn8A-53" value="Переглянути свої медичні дані" style="strokeWidth=1;shadow=0;dashed=0;align=center;html=1;shape=mxgraph.mockup.forms.pwField;strokeColor=#999999;mainText=;align=left;fontColor=#666666;fontSize=17;spacingLeft=3;" vertex="1" parent="uLyO-aLDXPjwOeiDQn8A-40">
          <mxGeometry x="62.5" y="300" width="275" height="30" as="geometry" />
        </mxCell>
        <mxCell id="uLyO-aLDXPjwOeiDQn8A-54" value="" style="strokeWidth=1;shadow=0;dashed=0;align=center;html=1;shape=mxgraph.mockup.containers.browserWindow;rSize=0;strokeColor=#666666;strokeColor2=#008cff;strokeColor3=#c4c4c4;mainText=,;recursiveResize=0;" vertex="1" parent="1">
          <mxGeometry x="390" y="680" width="400" height="460" as="geometry" />
        </mxCell>
        <mxCell id="uLyO-aLDXPjwOeiDQn8A-55" value="Page 1" style="strokeWidth=1;shadow=0;dashed=0;align=center;html=1;shape=mxgraph.mockup.containers.anchor;fontSize=17;fontColor=#666666;align=left;whiteSpace=wrap;" vertex="1" parent="uLyO-aLDXPjwOeiDQn8A-54">
          <mxGeometry x="60" y="12" width="110" height="26" as="geometry" />
        </mxCell>
        <mxCell id="uLyO-aLDXPjwOeiDQn8A-56" value="https://InfoSportforActiveLife.com" style="strokeWidth=1;shadow=0;dashed=0;align=center;html=1;shape=mxgraph.mockup.containers.anchor;rSize=0;fontSize=17;fontColor=#666666;align=left;" vertex="1" parent="uLyO-aLDXPjwOeiDQn8A-54">
          <mxGeometry x="130" y="60" width="200" height="26" as="geometry" />
        </mxCell>
        <mxCell id="uLyO-aLDXPjwOeiDQn8A-57" value="&lt;font style=&quot;font-size: 20px;&quot;&gt;Меню&lt;/font&gt;" style="text;html=1;align=center;verticalAlign=middle;resizable=0;points=[];autosize=1;strokeColor=none;fillColor=none;" vertex="1" parent="uLyO-aLDXPjwOeiDQn8A-54">
          <mxGeometry x="160" y="150" width="80" height="40" as="geometry" />
        </mxCell>
        <mxCell id="uLyO-aLDXPjwOeiDQn8A-58" value="Меню тренувань" style="strokeWidth=1;shadow=0;dashed=0;align=center;html=1;shape=mxgraph.mockup.forms.pwField;strokeColor=#999999;mainText=;align=left;fontColor=#666666;fontSize=17;spacingLeft=3;" vertex="1" parent="uLyO-aLDXPjwOeiDQn8A-54">
          <mxGeometry x="85" y="210" width="275" height="35" as="geometry" />
        </mxCell>
        <mxCell id="uLyO-aLDXPjwOeiDQn8A-59" value="Меню здоров&#39;я" style="strokeWidth=1;shadow=0;dashed=0;align=center;html=1;shape=mxgraph.mockup.forms.pwField;strokeColor=#999999;mainText=;align=left;fontColor=#666666;fontSize=17;spacingLeft=3;" vertex="1" parent="uLyO-aLDXPjwOeiDQn8A-54">
          <mxGeometry x="85" y="260" width="275" height="30" as="geometry" />
        </mxCell>
        <mxCell id="uLyO-aLDXPjwOeiDQn8A-60" value="Профіль" style="strokeWidth=1;shadow=0;dashed=0;align=center;html=1;shape=mxgraph.mockup.forms.pwField;strokeColor=#999999;mainText=;align=left;fontColor=#666666;fontSize=17;spacingLeft=3;" vertex="1" parent="uLyO-aLDXPjwOeiDQn8A-54">
          <mxGeometry x="85" y="300" width="275" height="30" as="geometry" />
        </mxCell>
        <mxCell id="uLyO-aLDXPjwOeiDQn8A-61" value="" style="strokeWidth=1;shadow=0;dashed=0;align=center;html=1;shape=mxgraph.mockup.containers.browserWindow;rSize=0;strokeColor=#666666;strokeColor2=#008cff;strokeColor3=#c4c4c4;mainText=,;recursiveResize=0;" vertex="1" parent="1">
          <mxGeometry x="860" y="680" width="400" height="460" as="geometry" />
        </mxCell>
        <mxCell id="uLyO-aLDXPjwOeiDQn8A-62" value="Page 1" style="strokeWidth=1;shadow=0;dashed=0;align=center;html=1;shape=mxgraph.mockup.containers.anchor;fontSize=17;fontColor=#666666;align=left;whiteSpace=wrap;" vertex="1" parent="uLyO-aLDXPjwOeiDQn8A-61">
          <mxGeometry x="60" y="12" width="110" height="26" as="geometry" />
        </mxCell>
        <mxCell id="uLyO-aLDXPjwOeiDQn8A-63" value="https://InfoSportforActiveLife.com" style="strokeWidth=1;shadow=0;dashed=0;align=center;html=1;shape=mxgraph.mockup.containers.anchor;rSize=0;fontSize=17;fontColor=#666666;align=left;" vertex="1" parent="uLyO-aLDXPjwOeiDQn8A-61">
          <mxGeometry x="130" y="60" width="200" height="26" as="geometry" />
        </mxCell>
        <mxCell id="uLyO-aLDXPjwOeiDQn8A-64" value="&lt;font style=&quot;font-size: 20px;&quot;&gt;Меню тренуваннь&lt;/font&gt;" style="text;html=1;align=center;verticalAlign=middle;resizable=0;points=[];autosize=1;strokeColor=none;fillColor=none;" vertex="1" parent="uLyO-aLDXPjwOeiDQn8A-61">
          <mxGeometry x="130" y="165" width="190" height="40" as="geometry" />
        </mxCell>
        <mxCell id="uLyO-aLDXPjwOeiDQn8A-65" value="Написати тренеру" style="strokeWidth=1;shadow=0;dashed=0;align=center;html=1;shape=mxgraph.mockup.forms.pwField;strokeColor=#999999;mainText=;align=left;fontColor=#666666;fontSize=17;spacingLeft=3;" vertex="1" parent="uLyO-aLDXPjwOeiDQn8A-61">
          <mxGeometry x="85" y="212.5" width="275" height="35" as="geometry" />
        </mxCell>
        <mxCell id="uLyO-aLDXPjwOeiDQn8A-66" value="Переглянути доступні вправи" style="strokeWidth=1;shadow=0;dashed=0;align=center;html=1;shape=mxgraph.mockup.forms.pwField;strokeColor=#999999;mainText=;align=left;fontColor=#666666;fontSize=17;spacingLeft=3;" vertex="1" parent="uLyO-aLDXPjwOeiDQn8A-61">
          <mxGeometry x="85" y="260" width="275" height="30" as="geometry" />
        </mxCell>
        <mxCell id="uLyO-aLDXPjwOeiDQn8A-67" value="Перевірити наявність повідомлень" style="strokeWidth=1;shadow=0;dashed=0;align=center;html=1;shape=mxgraph.mockup.forms.pwField;strokeColor=#999999;mainText=;align=left;fontColor=#666666;fontSize=17;spacingLeft=3;" vertex="1" parent="uLyO-aLDXPjwOeiDQn8A-61">
          <mxGeometry x="85" y="310" width="275" height="30" as="geometry" />
        </mxCell>
        <mxCell id="uLyO-aLDXPjwOeiDQn8A-68" value="" style="strokeWidth=1;shadow=0;dashed=0;align=center;html=1;shape=mxgraph.mockup.containers.browserWindow;rSize=0;strokeColor=#666666;strokeColor2=#008cff;strokeColor3=#c4c4c4;mainText=,;recursiveResize=0;" vertex="1" parent="1">
          <mxGeometry x="1440" y="780" width="400" height="460" as="geometry" />
        </mxCell>
        <mxCell id="uLyO-aLDXPjwOeiDQn8A-69" value="Page 1" style="strokeWidth=1;shadow=0;dashed=0;align=center;html=1;shape=mxgraph.mockup.containers.anchor;fontSize=17;fontColor=#666666;align=left;whiteSpace=wrap;" vertex="1" parent="uLyO-aLDXPjwOeiDQn8A-68">
          <mxGeometry x="60" y="12" width="110" height="26" as="geometry" />
        </mxCell>
        <mxCell id="uLyO-aLDXPjwOeiDQn8A-70" value="https://InfoSportforActiveLife.com" style="strokeWidth=1;shadow=0;dashed=0;align=center;html=1;shape=mxgraph.mockup.containers.anchor;rSize=0;fontSize=17;fontColor=#666666;align=left;" vertex="1" parent="uLyO-aLDXPjwOeiDQn8A-68">
          <mxGeometry x="130" y="60" width="200" height="26" as="geometry" />
        </mxCell>
        <mxCell id="uLyO-aLDXPjwOeiDQn8A-72" value="&lt;font style=&quot;font-size: 18px;&quot;&gt;Тренер&lt;/font&gt;" style="text;html=1;align=center;verticalAlign=middle;resizable=0;points=[];autosize=1;strokeColor=none;fillColor=none;strokeWidth=3;" vertex="1" parent="uLyO-aLDXPjwOeiDQn8A-68">
          <mxGeometry x="160" y="135" width="80" height="40" as="geometry" />
        </mxCell>
        <mxCell id="uLyO-aLDXPjwOeiDQn8A-73" value="&lt;br&gt;Добрий день, надайте будь-ласка новий комплекс вправ." style="strokeWidth=1;shadow=0;dashed=0;align=center;html=1;shape=mxgraph.mockup.containers.rrect;rSize=0;strokeColor=#666666;fontColor=#666666;fontSize=17;verticalAlign=top;whiteSpace=wrap;fillColor=#ffffff;spacingTop=32;" vertex="1" parent="uLyO-aLDXPjwOeiDQn8A-68">
          <mxGeometry y="280" width="400" height="180" as="geometry" />
        </mxCell>
        <mxCell id="uLyO-aLDXPjwOeiDQn8A-74" value="Повідомлення" style="strokeWidth=1;shadow=0;dashed=0;align=center;html=1;shape=mxgraph.mockup.containers.rrect;rSize=0;fontSize=17;fontColor=#666666;strokeColor=#666666;align=left;spacingLeft=8;fillColor=#ffffff;resizeWidth=1;whiteSpace=wrap;" vertex="1" parent="uLyO-aLDXPjwOeiDQn8A-73">
          <mxGeometry width="400" height="30" relative="1" as="geometry" />
        </mxCell>
        <mxCell id="uLyO-aLDXPjwOeiDQn8A-75" value="" style="shape=ellipse;strokeColor=#008cff;resizable=0;fillColor=none;html=1;" vertex="1" parent="uLyO-aLDXPjwOeiDQn8A-74">
          <mxGeometry x="1" y="0.5" width="20" height="20" relative="1" as="geometry">
            <mxPoint x="-25" y="-10" as="offset" />
          </mxGeometry>
        </mxCell>
        <mxCell id="uLyO-aLDXPjwOeiDQn8A-76" value="OK" style="strokeWidth=1;shadow=0;dashed=0;align=center;html=1;shape=mxgraph.mockup.containers.rrect;rSize=0;fontSize=16;fontColor=#666666;strokeColor=#c4c4c4;resizable=0;whiteSpace=wrap;fillColor=#ffffff;" vertex="1" parent="uLyO-aLDXPjwOeiDQn8A-73">
          <mxGeometry x="0.5" y="1" width="120" height="25" relative="1" as="geometry">
            <mxPoint x="-60" y="-33" as="offset" />
          </mxGeometry>
        </mxCell>
        <mxCell id="uLyO-aLDXPjwOeiDQn8A-77" value="" style="verticalLabelPosition=bottom;shadow=0;dashed=0;align=center;html=1;verticalAlign=top;strokeWidth=1;shape=mxgraph.mockup.markup.line;strokeColor=#999999;" vertex="1" parent="uLyO-aLDXPjwOeiDQn8A-68">
          <mxGeometry x="80" y="200" width="320" height="20" as="geometry" />
        </mxCell>
        <mxCell id="uLyO-aLDXPjwOeiDQn8A-78" value="" style="verticalLabelPosition=bottom;shadow=0;dashed=0;align=center;html=1;verticalAlign=top;strokeWidth=1;shape=mxgraph.mockup.containers.userFemale;strokeColor=#666666;strokeColor2=#008cff;" vertex="1" parent="uLyO-aLDXPjwOeiDQn8A-68">
          <mxGeometry y="105" width="100" height="105" as="geometry" />
        </mxCell>
        <mxCell id="uLyO-aLDXPjwOeiDQn8A-79" value="" style="strokeWidth=1;shadow=0;dashed=0;align=center;html=1;shape=mxgraph.mockup.containers.browserWindow;rSize=0;strokeColor=#666666;strokeColor2=#008cff;strokeColor3=#c4c4c4;mainText=,;recursiveResize=0;" vertex="1" parent="1">
          <mxGeometry x="400" y="1220" width="400" height="460" as="geometry" />
        </mxCell>
        <mxCell id="uLyO-aLDXPjwOeiDQn8A-80" value="Page 1" style="strokeWidth=1;shadow=0;dashed=0;align=center;html=1;shape=mxgraph.mockup.containers.anchor;fontSize=17;fontColor=#666666;align=left;whiteSpace=wrap;" vertex="1" parent="uLyO-aLDXPjwOeiDQn8A-79">
          <mxGeometry x="60" y="12" width="110" height="26" as="geometry" />
        </mxCell>
        <mxCell id="uLyO-aLDXPjwOeiDQn8A-81" value="https://InfoSportforActiveLife.com" style="strokeWidth=1;shadow=0;dashed=0;align=center;html=1;shape=mxgraph.mockup.containers.anchor;rSize=0;fontSize=17;fontColor=#666666;align=left;" vertex="1" parent="uLyO-aLDXPjwOeiDQn8A-79">
          <mxGeometry x="130" y="60" width="250" height="26" as="geometry" />
        </mxCell>
        <mxCell id="uLyO-aLDXPjwOeiDQn8A-82" value="Профіль" style="text;html=1;align=center;verticalAlign=middle;resizable=0;points=[];autosize=1;strokeColor=none;fillColor=none;" vertex="1" parent="uLyO-aLDXPjwOeiDQn8A-79">
          <mxGeometry x="157" y="140" width="70" height="30" as="geometry" />
        </mxCell>
        <mxCell id="uLyO-aLDXPjwOeiDQn8A-83" value="user.emai@gmail.com" style="strokeWidth=1;shadow=0;dashed=0;align=center;html=1;shape=mxgraph.mockup.text.textBox;fontColor=#666666;align=left;fontSize=17;spacingLeft=4;spacingTop=-3;whiteSpace=wrap;strokeColor=#666666;mainText=" vertex="1" parent="uLyO-aLDXPjwOeiDQn8A-79">
          <mxGeometry x="100" y="190" width="185" height="30" as="geometry" />
        </mxCell>
        <mxCell id="uLyO-aLDXPjwOeiDQn8A-84" value="****************" style="strokeWidth=1;shadow=0;dashed=0;align=center;html=1;shape=mxgraph.mockup.text.textBox;fontColor=#666666;align=left;fontSize=17;spacingLeft=4;spacingTop=-3;whiteSpace=wrap;strokeColor=#666666;mainText=" vertex="1" parent="uLyO-aLDXPjwOeiDQn8A-79">
          <mxGeometry x="100" y="240" width="184" height="30" as="geometry" />
        </mxCell>
        <mxCell id="uLyO-aLDXPjwOeiDQn8A-85" value="Зберегти дані входу" style="strokeWidth=1;shadow=0;dashed=0;align=center;html=1;shape=mxgraph.mockup.buttons.button;strokeColor=#666666;fontColor=#ffffff;mainText=;buttonStyle=round;fontSize=17;fontStyle=1;fillColor=#008cff;whiteSpace=wrap;" vertex="1" parent="uLyO-aLDXPjwOeiDQn8A-79">
          <mxGeometry x="117.5" y="320" width="152.5" height="70" as="geometry" />
        </mxCell>
        <mxCell id="uLyO-aLDXPjwOeiDQn8A-88" value="" style="endArrow=classic;html=1;rounded=0;entryX=0.466;entryY=0.002;entryDx=0;entryDy=0;entryPerimeter=0;" edge="1" parent="1" source="uLyO-aLDXPjwOeiDQn8A-21" target="uLyO-aLDXPjwOeiDQn8A-54">
          <mxGeometry width="50" height="50" relative="1" as="geometry">
            <mxPoint x="470" y="620" as="sourcePoint" />
            <mxPoint x="690" y="650" as="targetPoint" />
          </mxGeometry>
        </mxCell>
        <mxCell id="uLyO-aLDXPjwOeiDQn8A-89" value="" style="endArrow=classic;html=1;rounded=0;entryX=0.575;entryY=0.007;entryDx=0;entryDy=0;entryPerimeter=0;" edge="1" parent="1" source="uLyO-aLDXPjwOeiDQn8A-22" target="uLyO-aLDXPjwOeiDQn8A-54">
          <mxGeometry width="50" height="50" relative="1" as="geometry">
            <mxPoint x="470" y="620" as="sourcePoint" />
            <mxPoint x="520" y="570" as="targetPoint" />
          </mxGeometry>
        </mxCell>
        <mxCell id="uLyO-aLDXPjwOeiDQn8A-90" value="" style="endArrow=classic;html=1;rounded=0;entryX=-0.002;entryY=0.374;entryDx=0;entryDy=0;entryPerimeter=0;" edge="1" parent="1" source="uLyO-aLDXPjwOeiDQn8A-20" target="uLyO-aLDXPjwOeiDQn8A-6">
          <mxGeometry width="50" height="50" relative="1" as="geometry">
            <mxPoint x="470" y="620" as="sourcePoint" />
            <mxPoint x="520" y="570" as="targetPoint" />
          </mxGeometry>
        </mxCell>
        <mxCell id="uLyO-aLDXPjwOeiDQn8A-91" value="" style="endArrow=classic;html=1;rounded=0;entryX=0.999;entryY=0.324;entryDx=0;entryDy=0;entryPerimeter=0;" edge="1" parent="1" source="uLyO-aLDXPjwOeiDQn8A-23" target="uLyO-aLDXPjwOeiDQn8A-2">
          <mxGeometry width="50" height="50" relative="1" as="geometry">
            <mxPoint x="470" y="620" as="sourcePoint" />
            <mxPoint x="520" y="570" as="targetPoint" />
          </mxGeometry>
        </mxCell>
        <mxCell id="uLyO-aLDXPjwOeiDQn8A-92" value="" style="endArrow=classic;html=1;rounded=0;exitX=0.009;exitY=0.553;exitDx=0;exitDy=0;exitPerimeter=0;" edge="1" parent="1" source="uLyO-aLDXPjwOeiDQn8A-52" target="uLyO-aLDXPjwOeiDQn8A-35">
          <mxGeometry width="50" height="50" relative="1" as="geometry">
            <mxPoint x="410" y="980" as="sourcePoint" />
            <mxPoint x="460" y="930" as="targetPoint" />
          </mxGeometry>
        </mxCell>
        <mxCell id="uLyO-aLDXPjwOeiDQn8A-94" value="" style="endArrow=classic;html=1;rounded=0;" edge="1" parent="1" source="uLyO-aLDXPjwOeiDQn8A-59" target="uLyO-aLDXPjwOeiDQn8A-40">
          <mxGeometry width="50" height="50" relative="1" as="geometry">
            <mxPoint x="410" y="980" as="sourcePoint" />
            <mxPoint x="460" y="930" as="targetPoint" />
          </mxGeometry>
        </mxCell>
        <mxCell id="uLyO-aLDXPjwOeiDQn8A-96" value="" style="endArrow=classic;html=1;rounded=0;exitX=0.377;exitY=1.081;exitDx=0;exitDy=0;exitPerimeter=0;" edge="1" parent="1" source="uLyO-aLDXPjwOeiDQn8A-60" target="uLyO-aLDXPjwOeiDQn8A-79">
          <mxGeometry width="50" height="50" relative="1" as="geometry">
            <mxPoint x="410" y="980" as="sourcePoint" />
            <mxPoint x="460" y="930" as="targetPoint" />
          </mxGeometry>
        </mxCell>
        <mxCell id="uLyO-aLDXPjwOeiDQn8A-99" value="" style="endArrow=classic;html=1;rounded=0;" edge="1" parent="1" source="uLyO-aLDXPjwOeiDQn8A-58" target="uLyO-aLDXPjwOeiDQn8A-65">
          <mxGeometry width="50" height="50" relative="1" as="geometry">
            <mxPoint x="410" y="980" as="sourcePoint" />
            <mxPoint x="460" y="930" as="targetPoint" />
          </mxGeometry>
        </mxCell>
        <mxCell id="uLyO-aLDXPjwOeiDQn8A-100" value="" style="endArrow=classic;html=1;rounded=0;" edge="1" parent="1" source="uLyO-aLDXPjwOeiDQn8A-65" target="uLyO-aLDXPjwOeiDQn8A-73">
          <mxGeometry width="50" height="50" relative="1" as="geometry">
            <mxPoint x="410" y="980" as="sourcePoint" />
            <mxPoint x="460" y="930" as="targetPoint" />
          </mxGeometry>
        </mxCell>
      </root>
    </mxGraphModel>
  </diagram>
</mxfile>
